<svg xmlns="http://www.w3.org/2000/svg" version="1.1" xmlns:xlink="http://www.w3.org/1999/xlink" xmlns:svgjs="http://svgjs.dev/svgjs" width="1000" height="123" viewBox="0 0 1000 123"><g transform="matrix(1,0,0,1,-0.6060606060606233,-0.38734455831096426)"><svg viewBox="0 0 396 49" data-background-color="#ffffff" preserveAspectRatio="xMidYMid meet" height="123" width="1000" xmlns="http://www.w3.org/2000/svg" xmlns:xlink="http://www.w3.org/1999/xlink"><g id="tight-bounds" transform="matrix(1,0,0,1,0.2400000000000091,0.15430799477428536)"><svg viewBox="0 0 395.52 48.69138401045146" height="48.69138401045146" width="395.52"><g><svg viewBox="0 0 500.3535103842941 61.59715037191312" height="48.69138401045146" width="395.52"><g transform="matrix(1,0,0,1,104.83351038429412,8.51306492115442)"><svg viewBox="0 0 395.52 44.57102052960428" height="44.57102052960428" width="395.52"><g id="textblocktransform"><svg viewBox="0 0 395.52 44.57102052960428" height="44.57102052960428" width="395.52" id="textblock"><g><svg viewBox="0 0 395.52 44.57102052960428" height="44.57102052960428" width="395.52"><g transform="matrix(1,0,0,1,0,0)"><svg width="395.52" viewBox="1.7799999713897705 -36.380001068115234 328.20001220703125 36.9900016784668" height="44.57102052960428" data-palette-color="#ff4136"><path d="M30.88-19.63L30.96-19.58Q30.49-18.75 30.49-15.6L30.49-15.6 30.49-8.03Q30.49-4.59 26.93-2.05L26.93-2.05Q23.24 0.61 17.9 0.61L17.9 0.61Q10.47 0.61 6.05-4.05L6.05-4.05Q1.78-8.5 1.78-15.38L1.78-15.38Q1.78-22.71 6.13-27.59L6.13-27.59Q10.99-33.08 19.51-33.08L19.51-33.08Q25.2-33.08 28.52-30.88L28.52-30.88 28.13-23.68 27.93-23.63Q27.08-25.12 24.56-26.07L24.56-26.07Q22.17-26.98 19.54-26.98 16.92-26.98 14.95-26.15 12.99-25.32 11.62-23.78L11.62-23.78Q8.74-20.63 8.74-15.45L8.74-15.45Q8.74-10.94 11.28-8.2L11.28-8.2Q13.82-5.49 17.82-5.49L17.82-5.49Q22.24-5.49 23.78-7.79L23.78-7.79Q24.27-8.52 24.27-9.45L24.27-9.45 24.27-13.5 21.12-13.5Q18.58-13.5 18.36-13.06L18.36-13.06 18.29-13.09 18.07-19.46Q18.75-19.26 23.61-19.26L23.61-19.26 26.49-19.26Q29.17-19.26 30.88-19.63L30.88-19.63ZM44.09-20.58L44.09 0.15Q42.92 0 39.57 0L39.57 0 37.62 0 37.62-32.57Q39.18-32.47 41.06-32.47 42.94-32.47 43.72-32.67L43.72-32.67 51.93-18.73 59.81-32.67Q60.59-32.47 62.79-32.47 64.99-32.47 66.55-32.57L66.55-32.57 66.55 0 64.6 0Q61.25 0 60.08 0.15L60.08 0.15 60.08-21.73 52.1-7.45 44.09-20.58ZM94.67-30.66L94.67-30.66 94.21-23.49 94.04-23.44Q92.23-26.15 87.89-26.95L87.89-26.95Q86.52-27.22 85.26-27.22 84-27.22 83.11-27 82.22-26.78 81.59-26.37L81.59-26.37Q80.24-25.49 80.24-24.07L80.24-24.07Q80.24-22.22 81.42-21.29L81.42-21.29Q82.88-20.17 86.27-19.71 89.67-19.26 91.72-18.48 93.77-17.7 95.09-16.5L95.09-16.5Q97.58-14.26 97.58-10.16L97.58-10.16Q97.58-4.79 93.53-1.88L93.53-1.88Q90.06 0.61 84.79 0.61L84.79 0.61Q80.54 0.61 76.39-1L76.39-1Q75.02-1.54 73.99-2.25L73.99-2.25 74.26-10.4 74.36-10.47Q77.39-5.25 84.3-5.25L84.3-5.25Q89.2-5.25 90.79-7.62L90.79-7.62Q91.33-8.42 91.33-9.41 91.33-10.4 91.01-11.05 90.69-11.69 89.96-12.16L89.96-12.16Q88.54-13.09 85.2-13.4 81.86-13.72 79.73-14.6 77.61-15.48 76.34-16.77L76.34-16.77Q74.04-19.12 74.04-23.32L74.04-23.32Q74.04-27.66 77.09-30.35L77.09-30.35Q80.2-33.08 85.46-33.08 90.72-33.08 94.67-30.66ZM123.8-30.66L123.8-30.66 123.33-23.49 123.16-23.44Q121.35-26.15 117.01-26.95L117.01-26.95Q115.64-27.22 114.38-27.22 113.13-27.22 112.24-27 111.35-26.78 110.71-26.37L110.71-26.37Q109.37-25.49 109.37-24.07L109.37-24.07Q109.37-22.22 110.54-21.29L110.54-21.29Q112-20.17 115.4-19.71 118.79-19.26 120.84-18.48 122.89-17.7 124.21-16.5L124.21-16.5Q126.7-14.26 126.7-10.16L126.7-10.16Q126.7-4.79 122.65-1.88L122.65-1.88Q119.18 0.61 113.91 0.61L113.91 0.61Q109.66 0.61 105.51-1L105.51-1Q104.14-1.54 103.12-2.25L103.12-2.25 103.39-10.4 103.48-10.47Q106.51-5.25 113.42-5.25L113.42-5.25Q118.33-5.25 119.91-7.62L119.91-7.62Q120.45-8.42 120.45-9.41 120.45-10.4 120.13-11.05 119.82-11.69 119.08-12.16L119.08-12.16Q117.67-13.09 114.32-13.4 110.98-13.72 108.85-14.6 106.73-15.48 105.46-16.77L105.46-16.77Q103.17-19.12 103.17-23.32L103.17-23.32Q103.17-27.66 106.22-30.35L106.22-30.35Q109.32-33.08 114.58-33.08 119.84-33.08 123.8-30.66ZM152.92-30.66L152.92-30.66 152.46-23.49 152.28-23.44Q150.48-26.15 146.13-26.95L146.13-26.95Q144.77-27.22 143.51-27.22 142.25-27.22 141.36-27 140.47-26.78 139.83-26.37L139.83-26.37Q138.49-25.49 138.49-24.07L138.49-24.07Q138.49-22.22 139.66-21.29L139.66-21.29Q141.13-20.17 144.52-19.71 147.91-19.26 149.97-18.48 152.02-17.7 153.33-16.5L153.33-16.5Q155.82-14.26 155.82-10.16L155.82-10.16Q155.82-4.79 151.77-1.88L151.77-1.88Q148.31 0.61 143.03 0.61L143.03 0.61Q138.78 0.61 134.63-1L134.63-1Q133.27-1.54 132.24-2.25L132.24-2.25 132.51-10.4 132.61-10.47Q135.63-5.25 142.54-5.25L142.54-5.25Q147.45-5.25 149.04-7.62L149.04-7.62Q149.57-8.42 149.57-9.41 149.57-10.4 149.26-11.05 148.94-11.69 148.21-12.16L148.21-12.16Q146.79-13.09 143.45-13.4 140.1-13.72 137.98-14.6 135.85-15.48 134.58-16.77L134.58-16.77Q132.29-19.12 132.29-23.32L132.29-23.32Q132.29-27.66 135.34-30.35L135.34-30.35Q138.44-33.08 143.7-33.08 148.96-33.08 152.92-30.66ZM182.04-30.66L182.04-30.66 181.58-23.49 181.41-23.44Q179.6-26.15 175.26-26.95L175.26-26.95Q173.89-27.22 172.63-27.22 171.37-27.22 170.48-27 169.59-26.78 168.96-26.37L168.96-26.37Q167.61-25.49 167.61-24.07L167.61-24.07Q167.61-22.22 168.79-21.29L168.79-21.29Q170.25-20.17 173.64-19.71 177.04-19.26 179.09-18.48 181.14-17.7 182.46-16.5L182.46-16.5Q184.95-14.26 184.95-10.16L184.95-10.16Q184.95-4.79 180.9-1.88L180.9-1.88Q177.43 0.61 172.16 0.61L172.16 0.61Q167.91 0.61 163.76-1L163.76-1Q162.39-1.54 161.36-2.25L161.36-2.25 161.63-10.4 161.73-10.47Q164.76-5.25 171.67-5.25L171.67-5.25Q176.57-5.25 178.16-7.62L178.16-7.62Q178.7-8.42 178.7-9.41 178.7-10.4 178.38-11.05 178.06-11.69 177.33-12.16L177.33-12.16Q175.92-13.09 172.57-13.4 169.23-13.72 167.1-14.6 164.98-15.48 163.71-16.77L163.71-16.77Q161.41-19.12 161.41-23.32L161.41-23.32Q161.41-27.66 164.47-30.35L164.47-30.35Q167.57-33.08 172.83-33.08 178.09-33.08 182.04-30.66ZM228.66-2.38Q226.86-0.95 224.01-0.17 221.15 0.61 216.99 0.61 212.82 0.61 208.14-0.15L208.14-0.15 208.14-32.32Q212.87-33.08 216.35-33.08 219.83-33.08 222.07-32.42 224.3-31.76 225.71-30.64L225.71-30.64Q228.5-28.47 228.5-25.01 228.5-21.56 225.98-19.29L225.98-19.29Q228.96-18.36 230.6-15.77L230.6-15.77Q232.09-13.45 232.09-10.63 232.09-7.81 231.27-5.81 230.45-3.81 228.66-2.38ZM214.61-27.81L214.61-20.19Q215.63-20.02 217.17-20.02 218.71-20.02 219.7-20.42 220.69-20.83 221.22-21.44L221.22-21.44Q222.1-22.44 222.1-24.22L222.1-24.22Q222.1-27.95 217.71-27.95L217.71-27.95Q215.85-27.95 214.61-27.81L214.61-27.81ZM218.22-14.97L218.22-14.97Q216.17-14.97 214.61-14.7L214.61-14.7 214.61-5.1Q216.32-4.66 218.2-4.66 220.08-4.66 221.5-5.11 222.93-5.57 223.91-6.35L223.91-6.35Q225.89-7.96 225.89-10.45L225.89-10.45Q225.89-14.97 218.22-14.97ZM235.53-12.55L235.53-12.55Q235.53-15.41 236.5-17.85 237.48-20.29 239.26-22.12L239.26-22.12Q243.07-26 249.22-26L249.22-26Q254.42-26 257.57-22.56L257.57-22.56Q260.67-19.24 260.67-14.21L260.67-14.21Q260.67-12.28 260.38-11.57L260.38-11.57Q257.94-10.89 250.44-10.89L250.44-10.89 241.85-10.89Q242.48-8.28 244.8-6.82 247.12-5.37 250.83-5.37L250.83-5.37Q254.72-5.37 257.5-6.76L257.5-6.76Q258.23-7.13 258.6-7.45L258.6-7.45Q258.55-6.42 258.48-5.35L258.48-5.35 258.21-1.54Q256.35-0.27 252.2 0.22L252.2 0.22Q250.98 0.37 249.86 0.37L249.86 0.37Q243.66 0.37 239.6-3.25L239.6-3.25Q235.53-6.88 235.53-12.55ZM254.18-15.63L254.18-15.63Q253.18-20.87 248.47-20.87L248.47-20.87Q244.76-20.87 242.83-17.68L242.83-17.68Q242.24-16.7 241.92-15.53L241.92-15.53Q242.51-15.5 243.36-15.48L243.36-15.48 245.17-15.48Q246.07-15.45 246.9-15.45L246.9-15.45 248.3-15.45Q249.54-15.45 250.74-15.48L250.74-15.48 252.74-15.55Q253.54-15.58 254.18-15.63ZM272.58-16.97L272.58-2.73Q272.58-0.63 272.68 0L272.68 0 266.6 0 266.6-34.91 272.58-34.91 272.58-23.61Q275.73-26 279.08-26L279.08-26Q283.18-26 285.67-23.29L285.67-23.29Q288.11-20.58 288.11-16.11L288.11-16.11 288.11-6.4Q288.11-2.27 288.23-1.44 288.36-0.61 288.56-0.37 288.77-0.12 288.92 0.07L288.92 0.07 288.87 0.17Q286.89 0 285.99 0L285.99 0 284.25 0Q283.45 0 282.13 0.07L282.13 0.07 282.13-14.06Q282.13-17.43 280.64-19.04L280.64-19.04Q279.52-20.26 277.59-20.26L277.59-20.26Q274.73-20.26 272.58-16.97L272.58-16.97ZM311.94-1.51L311.94-1.51Q308.47 0.37 305.66 0.37 302.86 0.37 300.85-0.16 298.85-0.68 297.46-1.71L297.46-1.71Q294.63-3.78 294.63-7.71L294.63-7.71Q294.63-11.23 298.1-13.57L298.1-13.57Q301.85-16.11 308.3-16.11L308.3-16.11 309.28-16.09Q309.57-16.06 309.94-16.05 310.3-16.04 310.6-15.99L310.6-15.99Q310.4-19.9 307.23-20.56L307.23-20.56Q306.18-20.78 304.99-20.78 303.81-20.78 302.67-20.57 301.54-20.36 300.46-20.02L300.46-20.02Q298.1-19.26 297.07-18.29L297.07-18.29 297-18.33 296.26-23.73Q300.59-26 305.71-26L305.71-26Q313.67-26 315.89-20.26L315.89-20.26Q316.6-18.43 316.6-16.14L316.6-16.14 316.6-7.3Q316.6-4.47 318.6-3.44L318.6-3.44 314.18 0.61Q312.79-0.12 311.94-1.51ZM310.62-6.49L310.62-11.6Q309.96-11.72 309.25-11.72L309.25-11.72 308.28-11.72Q302.88-11.72 301.42-9.33L301.42-9.33Q300.98-8.62 300.98-7.84 300.98-7.06 301.26-6.46 301.54-5.86 302.2-5.47L302.2-5.47Q303.47-4.74 305.97-4.74 308.47-4.74 310.64-5.93L310.64-5.93Q310.62-6.2 310.62-6.49L310.62-6.49ZM329.88-36.38L329.88-2.73Q329.88-0.63 329.98 0L329.98 0 323.78 0 323.78-36.38 329.88-36.38Z" opacity="1" transform="matrix(1,0,0,1,0,0)" fill="#ff4136" class="wordmark-text-0" data-fill-palette-color="primary" id="text-0"></path></svg></g></svg></g></svg></g></svg></g><g><svg viewBox="0 0 94.31136214174725 61.59715037191312" height="61.59715037191312" width="94.31136214174725"><g><svg xmlns="http://www.w3.org/2000/svg" xmlns:xlink="http://www.w3.org/1999/xlink" version="1.1" x="0" y="0" viewBox="-252.60000610351562 366.3999938964844 96 62.700042724609375" enable-background="new -255 347 100 100" xml:space="preserve" height="61.59715037191312" width="94.31136214174725" class="icon-icon-0" data-fill-palette-color="accent" id="icon-0"><g fill="#ff5858" data-fill-palette-color="accent"><path d="M-229.1 402.2c-2.5 3.7-2.5 8.1-2.5 8.1v3.6c11.4 0 21.4 6.1 26.9 15.2 5.5-9.1 15.5-15.2 27-15.2v-3.6c0-3.6-1-6.2-2.4-8.1l-24.6 10.9L-229.1 402.2zM-156.6 387.8l-48-21.4-48 21.4 48 21.4 36.7-16.3v8.6c-2.5 0.7-4.4 2.9-4.4 5.7 0 2.5 1.5 4.6 3.7 5.5l-2 14.2h8.5l-2-14.2c2.2-0.9 3.7-3 3.7-5.5 0-2.7-1.9-5-4.4-5.7v-10.1L-156.6 387.8z" fill="#ff5858" data-fill-palette-color="accent"></path></g></svg></g></svg></g></svg></g><defs></defs></svg><rect width="395.52" height="48.69138401045146" fill="none" stroke="none" visibility="hidden"></rect></g></svg></g></svg>